# AST/ASF file generated using VICON BodyLanguage
# -----------------------------------------------
:version 1.10
:name VICON
:units
  mass 1.0
  length 0.45
  angle deg
:documentation
   .ast/.asf automatically generated from VICON data using
   VICON BodyBuilder and BodyLanguage model FoxedUp or BRILLIANT.MOD
:root
   order TX TY TZ RX RY RZ
   axis XYZ
   position 0 0 0  
   orientation 0 -0 0 
:bonedata
  begin
     id 1 
     name lhipjoint
     direction 0.500677 -0.737119 0.453848 
     length 2.34727 
     axis 0 -0 0  XYZ
  end
  begin
     id 2 
     name lfemur
     direction 0.34202 -0.939693 0  
     length 7.53653  
     axis 0 -0 20  XYZ
    dof rx ry rz
    limits (-160.0 20.0)
           (-70.0 70.0)
           (-60.0 70.0)
  end
  begin
     id 3 
     name ltibia
     direction 0.34202 -0.939693 0   
     length 6.85572   
     axis 0 -0 20   XYZ
    dof rx
    limits (-10.0 170.0)
  end
  begin
     id 4 
     name lfoot
     direction 0.155313 -0.426718 0.890949   
     length 2.18324   
     axis -90 -1.13533e-015 20   XYZ
    dof rx rz
    limits (-45.0 90.0)
           (-70.0 20.0)
  end
  begin
     id 5 
     name ltoes
     direction 1.53474e-011 -4.21647e-011 1   
     length 1.06748   
     axis -90 -1.13533e-015 20   XYZ
    dof rx
    limits (-90.0 20.0)
  end
  begin
     id 6 
     name rhipjoint
     direction -0.632471 -0.659587 0.406111   
     length 2.62319  
     axis 0 -0 0  XYZ 
  end
  begin
     id 7 
     name rfemur
     direction -0.34202 -0.939693 0   
     length 7.21735   
     axis 0 -0 -20   XYZ
    dof rx ry rz
    limits (-160.0 20.0)
           (-70.0 70.0)
           (-70.0 60.0)
  end
  begin
     id 8 
     name rtibia
     direction -0.34202 -0.939693 0   
     length 7.02558   
     axis 0 -0 -20   XYZ
    dof rx
    limits (-10.0 170.0)
 end
 begin
     id 9 
     name rfoot
     direction -0.16057 -0.441164 0.882945   
     length 2.10014  
     axis -90 1.13533e-015 -20   XYZ
    dof rx rz
    limits (-45.0 90.0)
           (-20.0 70.0)
  end
  begin
     id 10 
     name rtoes
     direction -1.53553e-011 -4.2192e-011 1   
     length 1.02554   
     axis -90 1.13533e-015 -20   XYZ
    dof rx
    limits (-90.0 20.0)
  end
  begin
     id 11 
     name lowerback
     direction 0.0401429 0.998861 -0.0258085   
     length 1.80848   
     axis 0 -0 0   XYZ
    dof rx ry rz
    limits (-20.0 45.0)
           (-30.0 30.0)
           (-30.0 30.0)
  end
  begin
     id 12 
     name upperback
     direction -0.0130978 0.999914 -0.000352645   
     length 1.8116   
     axis 0 -0 0   XYZ
    dof rx ry rz
    limits (-20.0 45.0)
           (-30.0 30.0)
           (-30.0 30.0)
  end
  begin
     id 13 
     name thorax
     direction -0.0300198 0.999453 0.0138573   
     length 1.81778   
     axis 0 -0 0   XYZ
    dof rx ry rz
    limits (-20.0 45.0)
           (-30.0 30.0)
           (-30.0 30.0)
  end
  begin
     id 14 
     name lowerneck
     direction -0.0401726 0.999191 -0.00173647   
     length 2.10594   
     axis 0 -0 0   XYZ
    dof rx ry rz
    limits (-20.0 45.0)
           (-30.0 30.0)
           (-30.0 30.0)
  end
  begin
     id 15 
     name upperneck
     direction 0.0119835 0.998501 0.0534085   
     length 2.07325   
     axis 0 -0 0   XYZ
    dof rx ry rz
    limits (-20.0 45.0)
           (-30.0 30.0)
           (-30.0 30.0)
  end
  begin
     id 16
     name head
     direction 0.00628309 0.999826 0.0175921  
     length 2.15096  
     axis 0 -0 0   XYZ
    dof rx ry rz
    limits (-20.0 45.0)
           (-30.0 30.0)
           (-30.0 30.0)
  end
  begin
     id 17 
     name lclavicle
     direction 0.895501 0.429681 -0.115981  
     length 4.18092  
     axis 0 -0 0   XYZ
    dof ry rz
    limits (-20.0 10.0)
           (0.0 20.0)
  end
  begin
     id 18 
     name lhumerus
     direction 1 -4.48961e-011 -3.38433e-028   
     length 5.77237   
     axis 180 -30 -90   XYZ
    dof rx ry rz
    limits (-60.0 90.0)
           (-90.0 90.0)
           (-90.0 90.0)
  end
  begin
     id 19
     name lradius
     direction 1 -4.4901e-011 1.11983e-026   
     length 2.91878   
     axis 180 -30 -90   XYZ
    dof rx
    limits (-10.0 170.0)
  end
  begin
     id 20
     name lwrist
     direction 1 -4.48934e-011 1.88176e-026   
     length 1.45939   
     axis -1.23311e-014 90 90   XYZ
    dof ry
    limits (-180.0 0.0)
 end
  begin
     id 21 
     name lhand
     direction 1 -4.4895e-011 3.76352e-026   
     length 1.06566   
     axis -2.40147e-014 90 90   XYZ
    dof rx rz
    limits (-90.0 90.0)
           (-45.0 45.0)
  end
  begin
     id 22 
     name lfingers
     direction 1 -4.49005e-011 7.52705e-026   
     length 0.859162   
     axis -4.80295e-014 90 90   XYZ
    dof rx
    limits (0.0 90.0)
  end
  begin
     id 23
     name lthumb
     direction 0.707107 -6.34885e-011 0.707107   
     length 1.23359   
     axis -90 45 -9.86935e-015   XYZ
    dof rx rz
    limits (-45.0 45.0)
           (-45.0 45.0)
  end
  begin
     id 24 
     name rclavicle
     direction -0.91006 0.40451 -0.0903492   
     length 4.23293  
     axis 0 -0 0   XYZ 
    dof ry rz
    limits (-10.0 20.0)
           (-20.0 0.0)
  end
  begin
     id 25 
     name rhumerus
     direction -1 -4.4897e-011 1.7415e-027  
     length 5.49854   
     axis 180 30 90   XYZ
    dof rx ry rz
    limits (-90.0 60.0)
           (-90.0 90.0)
           (-90.0 90.0)
  end
  begin
     id 26 
     name rradius
     direction -1 -4.48963e-011 1.21259e-026   
     length 3.1186   
     axis 180 30 90   XYZ
    dof rx
    limits (-10.0 170.0)
  end
  begin
     id 27 
     name rwrist
     direction -1 -4.48967e-011 1.88176e-026   
     length 1.5593   
     axis -1.23311e-014 -90 -90   XYZ
    dof ry
    limits (-180.0 0.0)
  end
  begin
     id 28
     name rhand
     direction -1 -4.4895e-011 3.76352e-026   
     length 0.71207   
     axis -2.40147e-014 -90 -90   XYZ
    dof rx rz
    limits (-90.0 90.0)
           (-45.0 45.0)
  end
  begin
     id 29
     name rfingers
     direction -1 -4.49005e-011 7.52705e-026   
     length 0.574089   
     axis -4.80295e-014 -90 -90   XYZ
    dof rx
    limits (0.0 90.0)
  end
  begin
     id 30
     name rthumb
     direction -0.707107 -6.34982e-011 0.707107   
     length 0.824281   
     axis -90 -45 9.86935e-015   XYZ
    dof rx rz
    limits (-45.0 45.0)
           (-45.0 45.0)
  end
:hierarchy
  begin
    root lhipjoint rhipjoint lowerback
    lhipjoint lfemur
    lfemur ltibia
    ltibia lfoot
    lfoot ltoes
    rhipjoint rfemur
    rfemur rtibia
    rtibia rfoot
    rfoot rtoes
    lowerback upperback
    upperback thorax
    thorax lowerneck lclavicle rclavicle
    lowerneck upperneck
    upperneck head
    lclavicle lhumerus
    lhumerus lradius
    lradius lwrist
    lwrist lhand lthumb
    lhand lfingers
    rclavicle rhumerus
    rhumerus rradius
    rradius rwrist
    rwrist rhand rthumb
    rhand rfingers
  end

#!OML:ASF C:\ViconDB\ViconDB\414\Spring2016\042216\male.ASF
:FULLY-SPECIFIED
:DEGREES
770
root 37.915 17.5497 12.7618 1042.51 77.0916 1398.7
lowerback -0.305558 -0.654036 8.52411
upperback -0.461447 -0.883093 -1.62023
thorax -0.463763 -0.47999 -6.48213
lowerneck -1.06417 10.2422 -1.78462
upperneck -2.39879 13.6267 -4.1523
head -0.38313 6.85395 -0.964869
rclavicle 1.8487e-014 -2.06736e-014
rhumerus -14.4499 26.8674 -100.98
rradius 26.238
rwrist 27.1032
rhand 14.5638 -19.4018
rfingers 7.12502
rthumb 39.4409 -44.7941
lclavicle 1.8487e-014 -2.06736e-014
lhumerus -44.0227 32.2554 67.1605
lradius 31.4507
lwrist -18.8153
lhand -8.96676 14.1529
lfingers 7.12502
lthumb 16.9784 43.4309
rfemur 12.4546 14.6153 30.5878
rtibia 3.33958e-014
rfoot -12.1488 5.68504
rtoes -5.69326
lfemur -29.4195 -9.18555 5.64986
ltibia 25.7547
lfoot -10.4664 23.9175
ltoes -12.2706
771
root 38.029 17.5212 12.7199 1043.66 76.3708 1399.76
lowerback -0.345025 -0.731831 8.48673
upperback -0.503856 -0.988209 -1.51169
thorax -0.50145 -0.535217 -6.34552
lowerneck -0.955953 10.4724 -1.68412
upperneck -2.58181 13.9215 -4.47532
head -0.423204 7.00728 -1.08672
rclavicle 5.76476e-015 -1.43125e-014
rhumerus -15.1429 27.4598 -101.137
rradius 26.3344
rwrist 26.9981
rhand 14.5023 -19.3143
rfingers 7.12502
rthumb 39.383 -44.7235
lclavicle 5.76476e-015 -1.43125e-014
lhumerus -43.923 31.9009 67.5054
lradius 31.644
lwrist -17.9897
lhand -9.30341 14.1814
lfingers 7.12502
lthumb 16.6544 43.4869
rfemur 12.7316 14.7789 30.627
rtibia 7.31528e-014
rfoot -12.1398 6.18923
rtoes -5.47404
lfemur -29.0464 -9.32856 5.74986
ltibia 25.452
lfoot -10.2663 24.8573
ltoes -13.1037
772
root 38.1441 17.4958 12.6842 1045.67 75.4136 1401.66
lowerback -0.437236 -0.733387 8.30775
upperback -0.504166 -0.99792 -1.45139
thorax -0.447021 -0.536628 -6.18113
lowerneck -0.951748 10.6955 -1.56551
upperneck -2.82662 14.2073 -4.7265
head -0.46858 7.15578 -1.18665
rclavicle 1.60519e-014 1.90833e-014
rhumerus -15.8371 28.6106 -101.389
rradius 26.6243
rwrist 26.1977
rhand 14.6586 -19.4789
rfingers 7.12502
rthumb 39.5302 -44.845
lclavicle 1.60519e-014 1.90833e-014
lhumerus -43.7534 31.2624 67.8883
lradius 32.0719
lwrist -17.1988
lhand -9.35074 14.5555
lfingers 7.12502
lthumb 16.6088 43.8648
rfemur 12.9699 15.272 30.604
rtibia 4.45278e-014
rfoot -12.0534 6.71038
rtoes -5.08784
lfemur -28.4711 -8.96298 5.67353
ltibia 25.1615
lfoot -10.1763 25.4854
ltoes -13.4372
773
root 38.2565 17.4569 12.6342 1045.27 74.1 1401.06
lowerback -0.298662 -0.712862 9.09984
upperback -0.623142 -0.951831 -1.28561
thorax -0.65295 -0.529989 -6.45462
lowerneck -0.826238 10.9007 -1.42974
upperneck -3.02156 14.467 -4.87435
head -0.52442 7.29032 -1.26484
rclavicle -2.7308e-014 1.43125e-014
rhumerus -16.5506 28.3459 -101.611
rradius 26.6281
rwrist 26.7894
rhand 14.6528 -19.2823
rfingers 7.12502
rthumb 39.5247 -44.65
lclavicle -2.7308e-014 1.43125e-014
lhumerus -43.6838 30.2492 68.3366
lradius 32.4811
lwrist -16.3576
lhand -9.34746 14.5426
lfingers 7.12502
lthumb 16.6119 43.8516
rfemur 13.1723 15.712 31.2835
rtibia -9.22361e-014
rfoot -11.901 7.26754
rtoes -4.74228
lfemur -28.003 -8.48319 6.26777
ltibia 25.0176
lfoot -9.99411 25.9376
ltoes -14.1826
774
root 38.3863 17.4397 12.5648 1046.85 74.1799 1402.54
lowerback -0.480302 -0.957805 8.87499
upperback -0.657749 -1.29611 -1.50045
thorax -0.648284 -0.703414 -6.55323
lowerneck -0.765788 11.0876 -1.26247
upperneck -3.22732 14.7034 -5.15442
head -0.560529 7.41385 -1.38303
rclavicle 1.08089e-014 1.11319e-014
rhumerus -17.3118 28.8058 -101.771
rradius 26.8255
rwrist 26.4554
rhand 14.4982 -19.3391
rfingers 7.12502
rthumb 39.3791 -44.7495
lclavicle 1.08089e-014 1.11319e-014
lhumerus -44.1546 35.0584 65.0207
lradius 30.6478
lwrist -21.0297
lhand -9.20047 12.9169
lfingers 7.12502
lthumb 16.7535 42.214
rfemur 13.4325 15.3531 30.4802
rtibia -2.54444e-014
rfoot -11.924 7.92125
rtoes -4.2006
lfemur -27.9142 -8.76346 5.27167
ltibia 25.0034
lfoot -8.76008 26.1347
ltoes -15.7098
